<svg xmlns="http://www.w3.org/2000/svg" fill="none" viewBox="0 0 800 800">
  <path fill="#ff3d91" d="M800 400a400 400 0 0 1-400 400A400 400 0 0 1 0 400 400 400 0 0 1 400 0a400 400 0 0 1 400 399.9"/>
  <path fill="#fff" d="M152.3 206c-4.3 0-6.5 2.2-6.5 7.6v372.8c0 4.3 2.2 7.6 6.5 7.6H211c4.4 0 6.5-3.3 6.5-7.6v-126h13c36 0 63.1-11 81.6-32.7 5.8-6.8 13.6-17.7 21.4-30.7L365 588.7c1 3.5 3.6 5.3 7 5.3v-.9h67.5c1.3-.2 2.6-.8 3.5-1.7 1.3-.8 2.3-2 2.6-3.5l22-125.3 6-37.6 5.3-37.7h1.8L485 425l6.2 37.6L509.5 588c.8 3.5 2.6 5.2 7 5.2h68.3c3.5 0 6.1-1.7 6.1-6.1l63-372.2c1-6.2-.8-8.8-4.3-8.8h-61.3c-3.5 0-6.1 2.6-7 6.1l-22 152.4-5.2 50.8c-2.6 33.3-4.4 66.5-5.2 99.9h-.9c-2.7-28.1-6.3-56.2-10.5-84.1L506.8 221c-.8-3.5-2.6-5.3-7-5.3h-58.7c-5.2 0-5.2 2.7-5.2 8.8l14 67.4-26.3 142c-5 27.3-9.3 54.7-13.1 82.2h-.9l-1.7-52.5a698 698 0 0 0-8.8-96.3l-22.8-155c-.8-3.6-2.6-5.3-7-5.3h-44.1c-66.8-.7-61.8-.9-96.8-.9zm65.2 66.3h13c13.1 0 22.9 4.3 29.4 14.1h-1c6.5 9.8 9.7 26.1 9.7 47.8a87 87 0 0 1-9.8 45.7c-6.5 9.8-16.3 14.1-30.4 14.1h-10.9Z"/>
</svg>
