<svg xmlns="http://www.w3.org/2000/svg" fill="none" viewBox="0 0 1802 71" width="1800" height="70" preserveAspectRatio="none"><path fill="#3D9DD9" d="M856.8 70v.4l-5 .1v-1h5v.4Zm-15-.6h5v1h-5v-1Zm24.8.6a361.1 361.1 0 0 1-4.7.3v-1a150.2 150.2 0 0 0 4.6-.3v1Zm-34.9-1 5.2.2v1l-5.2-.2v-1Zm969.5.2-.4 1-2.3-.8.3-1 2.4.8Zm-979.3-.8c1.6.2 3.3.2 5 .3l-.1.5v.5c-1.7 0-3.3-.2-5-.3v-1Zm54.6.8-5 .4v-1l5-.4v1Zm-59.8-1v.9a923 923 0 0 1-5-.3l.1-.5v-.5c1.7 0 3.3.2 5 .3Zm69.7-.5v.5l-5 .5v-1l5-.5v.5Zm-79.5-.3v.5l-.1.5-5.1-.4v-1l5.2.4Zm987-.5-.2 1-4.8-1.5.3-1 4.8 1.5Zm-897.5.2-5 .6v-.5l-.1-.5 5-.6.1 1Zm-99.5-.5v.5l-.1.5-5-.5v-.5l.1-.5 5 .5Zm-10-1-.1 1-5-.4v-1l5 .5Zm119.3-.1v.5l-5 .6v-1l5-.6v.5ZM777 64.7l-.1 1-5-.5v-1l5 .5Zm139.1 0-4.8.7-.1-1 4.8-.6.1 1Zm868.3-.8-.3 1-4.8-1.5.3-1 4.8 1.5ZM767 63.7v.5l-.1.4-5-.5.2-1 4.9.6Zm159.2-.2-5 .6-.1-1 5-.6.1 1Zm-169-.9-.1.5v.5l-5-.6v-1l5 .6Zm178.8-.9v.5l-5 .7v-1l4.9-.7v.5Zm-189-.2v1l-5-.6.1-.5V61l5 .6Zm1028-.4-.3 1c-1.6-.6-3.3-1-5-1.5l.2-.5.2-.5 4.8 1.5Zm-829-.2-5 .7v-1l4.8-.7.1 1Zm-209-.6v1l-5-.6v-1l5 .6Zm218.6-.7-5 .7v-.5l-.1-.5 5-.7.1 1ZM727 59.2l-.1 1-5-.6.1-.5v-.5l5 .6Zm1038.1-1-.3 1-4.8-1.4.3-1 4.8 1.4Zm-1048-.2v1l-5-.7v-1l5 .7Zm248.3-.2v.4l-4.8.7-.1-.5V58l4.8-.6v.5Zm-258.3-1v.4l-.1.5-5-.6.1-.5.1-.5 5 .6Zm268.2-.4.1.5-5 .7-.1-1 5-.7v.5Zm-278-1-.1.6v.5l-5-.7v-1l5 .7Zm1058.2 0-.3 1-4.9-1.3.3-1 4.9 1.4Zm-770.3.1-5 .7v-1l4.8-.7.2 1Zm-298-1.3v1l-5-.6V54l.1-.5 5 .6Zm307.9-.6v.5l-5 .7v-1l4.9-.7v.5ZM677.5 53l-.1 1-5-.6v-.5l.1-.5 5 .6Zm1068.4-.1-.1.4-.2.5-4.8-1.3.1-.5.1-.5 4.9 1.4Zm-740.9 0-4.9.6V53l-.1-.5 4.9-.7.1 1Zm-337.5-1.2-.1 1-5-.6v-.5l.1-.5 5 .6Zm347.5-.3-5 .7-.1-1 5-.7v1Zm-357.4-1v.5l-.1.5-5-.7.1-.4v-.5l5 .6Zm1078.6-.2-.2 1-5-1.4.2-.5.1-.4 5 1.3Zm-711.5-.7v.5l-4.9.7v-.5l-.1-.5 5-.7v.5Zm-377-.4-.1 1-5-.7v-1l5 .7ZM3.5 48.9l-2.3 1-.4-.8L3 48l.5.9Zm1031.1-1v.6l-4.9.7v-.5l-.1-.5 5-.7v.5Zm-396.8-.2-.2 1-5-.7.1-.5.1-.5 5 .7Zm1088.7-.2v.5l-.2.4-4.9-1.3.1-.4.2-.5 4.8 1.3Zm-682-1v.6l-5 .7v-1l4.8-.7.1.5Zm-416.7-.2v1l-5-.7v-1l5 .7Zm-615-1.5-4.7 2-.4-1 4.6-2 .4 1Zm1041.5.4.1.5-5 .7v-1l4.9-.7v.5ZM618 45l-.1 1-5-.7v-.5l.1-.5 5 .7Zm1099 0-.2.4-.1.5-4.9-1.3.3-1 4.8 1.3Zm-652.7-.8-4.9.8-.1-1 4.9-.7.1 1ZM608 43.6v.5l-.1.5-5-.7v-.5l.1-.5 5 .7Zm466-1.3.1.5-5 .7v-.9l4.9-.8v.5Zm633.1 0-.1.6-.1.5-4.9-1.3.3-1 4.8 1.3Zm-1109 0-.2 1-5-.8.2-1 5 .7ZM22 41l-4.7 1.9-.2-.5-.2-.5 4.7-1.8.4.9Zm1062 0v.4l-4.9.7v-.5l-.1-.5 5-.7v.5Zm-496-.2v1l-5-.7v-1l5 .7Zm1109.3-1-.1.5-.2.5-4.8-1.2.1-.5.1-.5 4.9 1.2Zm-603.6.1-5 .7v-1l5-.7v1Zm-515.6-.5-.1 1-5-.7v-.5l.2-.5 5 .7Zm525.5-.9-5 .7v-1l4.8-.7.2 1Zm-1072-1.1-4.8 1.8-.2-.5-.1-.5a464 464 0 0 1 4.7-1.7l.4 1Zm536.7.7v.5l-.1.5-5-.7V38l.1-.5 5 .7Zm1119.3-.6-.2 1-4.9-1.2.3-1 4.8 1.2Zm-574-.3-5 .7-.1-1 5-.7v1Zm-555.2-.5v.5l-.2.5-5-.7.2-1 5 .7Zm565-.9-4.9.7-.1-1 4.9-.7.1 1Zm-575-.4v.9l-5-.6.1-1 5 .7ZM1678 35l-.1.5-.1.5-5-1.2.2-.4.1-.5 4.9 1.1ZM41 33.5l.2.5-4.8 1.6-.1-.5-.2-.4a518 518 0 0 1 4.8-1.7l.1.5Zm1092.4.8-5 .7v-1l4.9-.7v1ZM538.5 34v.5l-.1.5-5-.7.1-.5v-.5l5 .7Zm1129.6-1.2v.5l-.2.5-4.9-1.1.1-.5.1-.5 5 1.1Zm-525-.3v.5l-4.9.7-.1-1 5-.7v.5Zm-614.5.1-.1 1-5-.7v-.5l.2-.5 5 .7Zm-478-2.2.1.5-4.8 1.5-.3-1 4.8-1.5.2.5Zm1102.4.8v.5l-4.9.6v-.5l-.1-.4 4.9-.7v.5Zm-634.3 0-.1 1-5-.7.1-1 5 .7Zm1139.7-.6-.1.4-.2.5-4.8-1 .2-1 4.9 1Zm-495.5-.3-5 .7v-1l4.9-.7.1 1Zm-654.1-.4-.2 1-5-.7.2-1 5 .7Zm664-1.5v.5l-5 .7-.1-1 5-.7v.5Zm-674 0v1.1l-5-.7v-1l5 .7ZM60.5 28l-4.9 1.4-.1-.4-.2-.5 4.9-1.5.3 1Zm1588.2.4-.1.5-.1.5-5-1 .3-1 4.9 1Zm-466-.7-4.9.7-.1-1 5-.7v1ZM489 27v.5l-.1.5-5-.7.2-1 5 .7Zm1149.9-1-.2 1-5-1 .3-1 4.9 1Zm-446.3-.3v.4l-5 .7v-1l4.9-.6v.5Zm-713.5 0-.1 1-5-.7.1-1 5 .7Zm-409-.7-4.8 1.4-.3-1 4.8-1.4.3 1Zm1132.2-.6v.5l-4.8.7-.2-1 5-.7v.5Zm-733.2 0v.5l-.2.5-5-.7.1-.5.1-.5 5 .7Zm1159.9-.3-.1.5-.1.5-5-1 .3-1 4.9 1Zm-416.7-.5-5 .7v-.5l-.1-.5 5-.7v1Zm-753.1-.5-.2 1-5-.7.2-1 5 .7Zm-379.3-.8-5 1.3-.2-1 5-1.3.2 1ZM1619 22v.5l-.2.5-4.9-1 .2-1 5 1Zm-397-.2v.5l-4.9.7-.1-1 5-.7v.5Zm-772.9 0v.4l-.1.5-5-.6v-.5l.2-.5 5 .6Zm782.8-1.3v.5l-5 .7v-1l5-.7v.5Zm-792.7 0v.4l-.1.5-5-.6.2-1 4.9.6Zm1170-.4v.4l-.2.5-5-1 .2-.4V19l5 1ZM89.7 19.8l-5 1.2v-.5l-.2-.4 5-1.3.2 1Zm1152.2 0-5 .6v-1l4.9-.6.1 1ZM429.4 19v.5l-.1.5-5-.6v-1l5 .6Zm822.4-.6-5 .6v-1l4.9-.6.1 1Zm347.7-.4-.2 1-5-1 .1-.4.1-.5 5 1Zm-1180-.3-.2 1-5-.6.1-.5v-.5l5 .6Zm-320-.4-5 1.2-.1-1 4.9-1.2.2 1Zm1162.1-.6.1.5-5 .6v-1l4.9-.6v.5Zm-852-.3-.2 1-5-.6v-.5l.1-.5 5 .6Zm1180-.2-.1.5v.5l-5-1V16l.2-.5 4.9.9Zm-318-.7v.5l-5 .6-.1-1 5-.6v.5Zm-1162.2-.4-5 1-.2-.9 5-1 .2.9Zm290.1 0v1.1l-5-.7V15l.1-.5 5 .7Zm1180.2-.7-.2 1a996 996 0 0 0-4.9-.9V14l.2-.4 5 .8Zm-298.3-.1v.5l-4.9.6v-1l4.9-.6v.5ZM389.7 14l-.1 1-5-.6v-1l5 .6Zm901.6-.3-4.9.6v-.5l-.1-.5 5-.6v1Zm-1172-.6-5 1-.2-1 5-1 .2 1Zm1450.5-.3-.1 1-5-.8.2-1 5 .8Zm-1190.1 0-.2 1-5-.6.1-.5.1-.5 5 .6Zm921.5-.7v.5l-4.9.6v-1l4.9-.6v.5Zm-931.4-.5v.5l-.1.5-5-.6v-1l5 .6Zm1190.1-.4v.5l-.1.5-5-.8v-.5l.2-.5 5 .8Zm-1430.6 0-5 1-.2-1 5-1 .2 1Zm1181.8.3-4.9.5v-.9l4.8-.6.1 1Zm-951.3-1v.4l-.1.5-5-.6v-.5l.1-.5 5 .6Zm961.3-.6v.5l-5 .6v-1l4.9-.6v.5Zm229-.3-.2 1-5-.7.1-1 5 .7Zm-1411-.1-5 .8-.1-1 5-.8.1 1ZM350 9.3v.5l-.1.5-5-.6v-1l5 .6Zm981-.4v.5l-4.9.5v-1l4.8-.5v.5Zm209.2-.7v.5l-.1.5-5-.7.1-1 5 .7ZM340 8.2l-.2 1-5-.6.2-1 5 .6Zm1001-.3v.5l-5 .5v-1l5-.5v.5Zm-1191.7 0-5 .8-.1-1 5-.8.1 1ZM330 7.1l-.1 1-5-.5v-1l5 .5Zm1020.7-.2v.5l-4.9.5v-1l4.9-.5V7Zm179.4 0v.4l-.1.5-5-.6.2-1 5 .6ZM159.1 6l.2.5-5 .7-.1-.5-.1-.5 5-.7V6ZM320 6v1l-5-.5v-1l5 .5Zm1040.8 0v.5l-5 .5V6l5-.5V6Zm159.5-.4-.2 1-5-.6.2-1 5 .6Zm-149.6 0-5 .5V5l5-.4v1ZM310.1 5.1l-.1 1-5.1-.5v-1l5.2.5Zm-140.8.2c-1.7.1-3.4.3-5 .6v-.5l-.2-.5 5-.6.2 1Zm1336-1.4 4.9.6-.1 1-5-.6.1-1Zm-124.7 1-5 .3v-1l5-.4v1ZM300 4l-.1 1-5-.4.1-.5v-.5l5 .4ZM179.4 4l-5 .6-.2-1 5-.5.2 1Zm1211.1-.5V4l-5 .4v-1l5-.4v.5Zm104.7-.6 5 .4v1l-5-.4V3Zm-1205.1.3v.5l-.1.5-5-.4v-1c1.7 0 3.4.2 5 .4Zm1110.3.1-4.9.3v-.9l4.9-.4v1Zm-1211-.1-5 .4v-1l5-.4v1Zm1295.8-1.1 5 .4v1a680 680 0 0 0-5-.4v-1ZM280 2.5v1l-5-.4v-.5l.1-.5 5 .4Zm1130.4-.2v.5l-5 .3v-1l5-.3v.5Zm-1210.9.3-5 .3v-1l5-.3v1Zm1275.7-1 5 .2v1a600 600 0 0 0-5-.3v-1ZM265 1.4c1.7 0 3.3.2 5 .3v1a822 822 0 0 0-5-.3v-1Zm1155.3.9-5 .2v-1l5-.2v1Zm44.9-1.3c1.6 0 3.3 0 5 .2v1l-5-.2V1Zm-1255.6.4V2l-5 .3v-1l5-.3v.5ZM255 1l5.1.2v1l-5.2-.2V1Zm1175.3.5V2l-5 .2v-1l5-.2v.5Zm24.8-.7h5v1h-5v-1Zm-14.8 1h-5v-1h5v1ZM219.8 1.7l-5 .1-.1-1 5-.1v1Zm27.8-1h2.4v1.1h-2.4l-2.5-.2v-1l2.5.1Zm1202.5 0v1a418.6 418.6 0 0 0-4.9 0v-1a486.8 486.8 0 0 1 5 0ZM230 1.5h-5v-1h5v1Zm5-1h5.1v1h-5v-1Z"/><path fill="#3D9DD9" d="M545.2 70v.4l5 .1v-1h-5v.4Zm15-.6h-5v1.1l5-.1v-1Zm-24.9.6a275.8 275.8 0 0 0 4.8.3v-1a151.6 151.6 0 0 1-4.7-.3v1Zm35-1-5.2.2v1l5.2-.2v-1Zm9.9-.6-5 .3v1c1.7 0 3.3-.2 5-.3v-1Zm-54.8.7 5 .5v-1l-5-.5v1Zm59.9-1v1l5-.4-.1-.5v-.5l-5 .4Zm-69.9-.2 5 .6v-1l-4.8-.6-.2 1Zm79.7-.6.1 1 5.1-.4v-1l-5.2.4Zm10-.8v.5l.1.5 5-.5v-.5l-.1-.5-5 .5Zm-99.6 0 5 .8v-1l-4.8-.7-.2 1Zm109.7-1v1l5-.4v-1l-5 .5Zm-119.5-1v.5l4.9.8v-.5l.1-.5-4.9-.8v.5Zm129.3 0 .1 1c1.7 0 3.4-.3 5-.4v-1l-5 .5Zm10.1-1v.5l.1.5 5-.5-.2-1-4.9.5Zm-149.3-.1 5 .8v-1l-4.9-.8-.1 1Zm159.2-1v1l5.1-.5v-.5l-.1-.5-5 .5Zm-169-1.3-.1.5 5 .9V62l.1-.5-5-.9v.5Zm179 .2.1 1 5-.6-.2-1-5 .6Zm9.9-1.2v1l5.1-.6V60l-.1-.5-5 .6ZM466 59.7l5 1 .1-1-4.9-1-.2 1Zm209-.7v1l5-.6-.1-1-5 .6Zm-218.6-1 4.9.9.1-.5.1-.5-4.9-1-.2 1Zm228.5-.2v1l5.1-.6v-.5l-.1-.5-5 .6Zm10-1.3v1l5-.6v-.5l-.1-.5-5 .6Zm-248.2-1v.4l4.8 1v-.5l.2-.4-4.9-1v.5Zm258-.2.1.5v.5l5-.7v-1l-5 .7Zm10-1.3v.5l.2.4 4.9-.6-.2-1-4.9.7Zm-277.9 0 5 1v-.6l.1-.4-4.9-1-.2 1Zm287.8-1.4v.5l.1.5 5-.6-.1-1-5 .6ZM427 51.9l5 1v-.5l.1-.5-4.9-1-.2 1Zm307.6-.6v.5l.1.5 5-.7-.2-1-5 .7Zm9.9-1.3v1l5-.7v-1l-5 .7Zm-327.1-.7-.1.5 4.9 1 .2-1-5-1v.5Zm1381.5 0c.8.2 1.4.5 2 .8l.4-1-2-.8-.4 1Zm-1044.5-.7v.5l.1.5 5-.7v-.5l-.1-.5-5 .7Zm-346.8-1.4-.1.5 4.9 1 .2-1-4.9-1v.5Zm356.7 0 .1 1 5-.6-.1-1-5 .6Zm1024.8-1v.5l5 1.1.1-.4.2-.5-5.2-1.2v.5Zm-1014.9-.3.1.5v.5l5-.7v-1l-5 .7ZM397.7 45v.4l4.8 1.1.2-1-4.9-1v.5Zm1381.4-.3 5.2 1 .1-.5.1-.5-5.2-1-.2 1Zm-995-.3.1 1 5-.7-.2-1-5 .7Zm-396.2-1 4.9 1 .2-1-5-1-.1 1Zm406-.4.2 1 5-.7-.2-1-5 .7Zm975.6-.3v.5l5 .8.1-1-5-.8v.5ZM804 41.6l.1 1 5-.7v-.5l-.1-.5-5 .7Zm955.7.2 4.9.6.1-1-4.8-.6-.2 1Zm-1381.5-.6 4.9 1 .2-1-4.9-1-.2 1Zm435.7-1v.5l.2.5 5-.7-.2-.5v-.5l-5 .7Zm935.8.2 5 .7v-1l-4.8-.7-.2 1ZM368.4 38.6v.5l4.8 1 .2-1-4.8-1-.2.5Zm1371.4.1v.5l5 .6v-.5l.1-.5-5-.6-.1.5Zm-916 .1v1l5-.7-.1-1-5 .7Zm906.1-1.3v.5l4.8.6v-.5l.1-.5-4.8-.6v.5Zm-896.2-.1v1l5-.7v-1l-5 .7Zm-475.1-.5 4.9 1.1v-.5l.2-.5-5-1-.1 1Zm1361.3-.5v.5l5 .6V37l.1-.5-5-.6-.1.5ZM843.6 36v.5l.1.5 5-.7-.1-.5v-.5l-5 .7Zm866.4-.2 4.9.6.1-1-4.9-.6v1ZM349 34.4l-.2.4 4.9 1 .1-.4.1-.5-4.9-1v.5Zm504.5.2v.5l.1.5 5-.7v-.5l-.1-.5-5 .7Zm846.4.2 5.1.5.1-1-5-.5-.2 1Zm-9.8-1 5 .5v-1l-4.9-.5v1Zm-826.7-.6v.5l.1.5 5-.7V33l-.1-.5-5 .7Zm-524.3-1v.6l4.8 1 .1-.5.1-.5-4.9-1v.5Zm1341 .1v.5l5 .5.2-1-5.1-.5v.5Zm-806.8-.5.2 1 5-.7-.1-.5-.1-.5-5 .7Zm797-.4v.5l4.8.4.1-1-4.9-.4v.5Zm-1341-.7 4.9 1v-.5l.2-.5-5-1-.1 1Zm1331 .2 5 .5v-1l-5-.5v1Zm-777-.5v1l5-.7v-.5l-.1-.5-5 .7Zm767-.4 4.9.5v-1l-4.8-.5-.1 1Zm-757.1-1v1l5-.7v-1l-5 .7Zm-573.6-.8-.1.5 4.9 1v-.5l.2-.5-5-1v.5Zm1320.8 1c1.6 0 3.3.2 5 .4v-1l-5-.5v1Zm-10-1 5 .5v-1l-5-.5v1ZM903 27.6l.1 1 5-.7-.1-1-5 .7Zm717.4-.7v.5l5 .4v-1l-5-.4v.5Zm-1310.8-.3 4.9 1 .2-1-5-1-.1 1Zm603.3-.4.1 1 5-.7V26l-.1-.5-5 .7Zm697.5-.1v.5c1.7 0 3.3.2 5 .4v-1l-5-.4v.5Zm-10-.4 5 .4v-1l-4.9-.4v1ZM923 24.8l.1.5v.5l5-.7-.1-1-5 .7Zm-623-.1 4.9 1 .2-1-5-1-.1 1Zm1290.7-.3v.5l5 .4v-1l-5-.4v.5Zm-10-.8v.5l5 .4v-1l-5-.4v.5ZM933 23.5v1l5-.7v-.5l-.1-.5-5 .7Zm637.8-.2 5 .4v-1l-5-.4v1ZM290 22.7l4.9 1 .2-1-5-1-.1 1Zm652.7-.6.1 1 5-.7-.1-1-5 .7Zm618 0-.1.5c1.7 0 3.3.2 5 .3v-1l-5-.3v.5Zm-10-.3 4.9.4v-1l-5-.4v1ZM280.3 20.4l-.1.5 4.9.9v-.5l.2-.5-5-1v.6Zm672.3.4.1 1 5-.7-.1-1-5 .7Zm588 .2 5 .4V21l.1-.5-5-.4v1Zm-10-.7 5 .4.2-1-5-.4-.1 1Zm-568.1-.9.1 1 5-.7v-.5l-.1-.4-5 .6ZM.9 19.1l.2 1 2.6-.6-.2-.4v-.5L.8 19Zm269.7-.6-.1.5 4.9 1 .2-1-5-1v.5Zm1250.2 1 5 .4v-1l-4.9-.3v1Zm-9.9-1.1v.5l5 .3v-1l-5-.3v.5ZM972.6 18l.1 1 5-.7-.2-1-5 .7Zm528.3 0 5 .4v-1l-5-.4v1ZM8.5 17.4l.1.5.2.5 5-1-.2-1-5 1Zm252.2-.6v.5l4.9.8v-.5l.1-.4-4.9-1v.6Zm1230.3.1v.5l5 .4v-1l-5-.4v.5Zm-508.5-.1v1l5-.7v-1l-5 .7Zm498.5-.5v.5l5 .3v-1l-5-.3v.5Zm-488.6-.8.1.5v.5l5-.7v-1l-5 .7Zm478.6 0v.6c1.7 0 3.3.2 5 .3v-1l-5-.3v.5ZM251 15l-.1.5 5 .9v-1l-4.8-.9-.1.5Zm-232.1.2.2 1 5-1-.1-1-5.1 1Zm1442.2.2 5 .3v-1l-4.9-.3v1Zm-458.7-1.2.2 1 5-.6-.2-1-5 .6Zm448.8 0v.5l5 .4v-1l-5-.4v.5ZM241 14l4.9.8.1-1-4.9-.8-.1 1Zm1200 0 5 .3v-1l-5-.3v1ZM29 13l.1 1 5.1-1v-.5L34 12l-5 1Zm983.2-.1.2 1 5-.7-.2-1-5 .7Zm418.9 0v.5l5 .3v-1l-5-.3v.5Zm-10-.2 5 .3v-1c-1.7 0-3.3-.2-5-.3v1ZM231 12.3l5 .8v-1l-4.9-.8-.1 1Zm791.1-.5.1 1 5-.7v-.5l-.1-.4-5 .6Zm389-.1v.5l5 .3v-1l-5-.3v.5Zm-1372-.6.2.5v.5l5.2-1v-.5l-.2-.4-5.1 1Zm1362 .5c1.7 0 3.3.2 5 .3v-1l-5-.3v1Zm-369-1v.4l.1.5 5-.5v-.5l-.1-.5-5 .6Zm-811-.3v.5l5 .7.1-1-5-.7v.5Zm1170.1.2v.5l5 .3v-1l-5-.3v.5Zm-10-.1 5 .3v-1l-5-.3v1Zm-339.2-1 .1 1 5-.6-.1-1-5 .6ZM49.6 9.2l.1 1 5.2-1-.1-.4v-.5l-5.2.9Zm1321.7.1v.5l5 .3v-1l-5-.3v.5Zm-1160 0 5 .8.1-1-5-.7v1Zm1150 0 5 .2V9l.1-.5c-1.7 0-3.3-.2-5-.3v1Zm-309.2-1 .1 1 5-.6v-1l-5 .5Zm299.3-.1v.5l5 .3V8l-5-.3v.5Zm-1150-.7V8l5 .7.1-1-5-.7v.5Zm1140 .6 5 .3v-1c-1.7 0-3.3-.2-5-.3v1ZM59.9 7.4v.5l.1.5 5.2-1L65 7v-.5l-5.2.9ZM1062 7.2l.1 1 5-.6v-1l-5 .6Zm269.4.4c1.7 0 3.3.2 5 .3v-1l-5-.3v1ZM191.6 6.3v.5l4.9.6.1-1-5-.6v.5Zm1129.8.3V7l5 .2v-1l-5-.2v.5ZM1072.1 6v1l5-.5v-1l-5 .5Zm239.4 0v.5l5 .2v-1l-5-.2V6ZM75.3 4.8l-5.1.8v.5l.1.5 5.2-.8-.2-1Zm1226.1 1.3 5 .2v-1l-5-.2v1ZM181.6 5.7l5 .5v-1l-4.9-.5-.1 1Zm900.3-.6.1 1 5-.5v-1l-5 .5Zm209.6 0v.5l5 .2v-1l-5-.2V5Zm-10-.5v.5l5 .3v-1l-5-.3v.5ZM1092 4.2v.5l.1.5 5-.5-.1-.5v-.5l-5 .5Zm-920.3 0v.5l5 .5v-1l-5-.5v.5Zm-86-.9-5.2.8.1.4V5l5.2-.7-.1-1Zm1185.8 1.4 5 .2v-1l-5-.2v1Zm-10-.5 5.1.3v-1l-5-.3v1Zm-159.6-1 .1 1c1.7 0 3.4-.2 5-.3v-1l-5 .4Zm-940.2.6 5 .4v-1l-5-.4v1Zm1089.8 0 5 .2V3l-5-.2v1Zm-9.8-.9v.5l4.9.2v-1l-5-.2V3ZM96 2l-5.2.6v.5l.1.5 5.2-.6v-.5L96 2Zm1015.9.5v1l5-.4-.1-1-5 .4Zm-960.2 0V3l5 .4v-1l-5-.4v.5Zm1079.7.6 5 .1v-1l-5-.1v1Zm-9.8-.4 4.9.2v-1l-4.8-.2v1ZM1127 1.5c-1.7 0-3.3.2-5 .3v1l5-.3v-1Zm-985.2 1 5 .2v-1l-5-.2v1Zm1069.8-.1 5 .2v-1l-5-.2v1ZM106.5 1l-5.3.5v1l5.3-.5V1Zm1095.1.6v.5l5 .2v-1l-5-.2v.5ZM1137 1l-5.1.2v1l5.2-.2V1Zm-1005.2.5V2l5 .2v-1l-5-.2v.5Zm1059.8.4h5V1l-5-.1v1ZM121.8 1.8h5v-1h-5v1Zm1022.6-1h-2.4v1h2.4l2.3-.1v-1h-2.3Zm37.3.9h5v-1h-5v1ZM114.4.7h-2.6v1.1a84 84 0 0 1 5 0V.6h-2.4Zm1057.3.9h4.9v-1h-4.9v1Zm-15-1h-5.1v1h5.2v-1Zm4.9.9h5v-1h-5v1Z"/></svg>