<svg xmlns="http://www.w3.org/2000/svg" fill="none" viewBox="0 0 255.023 28.289"><path fill="#fff" d="m255.002 0-16.863.02c.057.717.058.607.058.607s.092 1.146.088 2.1c.008.972-.36.63-.36 1.763-.008 1.145-.093.711-.093.711l-.232 1.483a9.1 9.1 0 1 1-12.014.05l.115-.31c.55-1.399 0 0 .184-1.84.183-1.84-.192-2.633-.192-2.633l-.275-1.053s-.09-.494-.07-.877l-22.59.018c.076.445-.018-.22.266.941.352 1.397.113 1.165.113 1.165l-.352 1.753c-.333 1.723-.125 1.315-.111 2.618a9.1 9.1 0 1 1-10.166-.92l.22-2.385c.235-2.577-.119-2.229-.119-2.229l-.093-.935-25.02.021c.22 2.12.501 4.985.438 5.442a6 6 0 0 1-.215.83 9.08 9.08 0 0 1-5.49 16.342 9.1 9.1 0 0 1-5.666-16.229c-.565-1.158-1.276-2.506-1.276-2.506l1.403-1.418.181-1.218c.094-.71-.033-1.05-.158-1.23l-22.63.009.048.617s.103 1.146.1 2.11c.007.962-.363.61-.362 1.753-.009 1.145-.094.711-.094.711l-.238 1.524a9.1 9.1 0 1 1-11.976-.082l.084-.21c.549-1.408 0 .002.183-1.849.184-1.84-.191-2.623-.191-2.623l-.274-1.05s-.091-.507-.072-.89L98.35.128c.076.445-.028-.219.265.932.354 1.406.114 1.173.114 1.173l-.35 1.754c-.322 1.611-.153 1.347-.11 2.387a9.08 9.08 0 0 1-5.458 16.37 9.1 9.1 0 0 1-4.725-16.878l.234-2.576c.236-2.567-.117-2.219-.117-2.219l-.096-.933L63.52.152c.13.511.12.854.085 1.057-.05.235-.031.484.018.72l.135.682c.234 1.165 0 0-.58 1.522-.58 1.521.11 1.867.11 1.867l.058.234a9.08 9.08 0 0 1-5.244 16.534 9.1 9.1 0 0 1-6.397-15.579l-.094-.554a2.16 2.16 0 0 1 .217-1.403l.498-.931.145-.334.175-.545a2.2 2.2 0 0 0 0-1.375l-.238-.713a3.9 3.9 0 0 1 .047-1.178L28.1.184c-.636 1.455.115-.18.334 1.046.233 1.286 0 0 .353 1.407.354 1.406.123 1.164.123 1.164l-.36 1.763-.095.561a9.09 9.09 0 0 1-5.043 16.666 9.1 9.1 0 0 1-5.03-16.682l.11-1.242c.235-2.577-.117-2.228-.117-2.228l-.113-1.164-.305-1.28L0 .201.021 28.29h255.002Z"/></svg>