<svg xmlns="http://www.w3.org/2000/svg">
  <symbol viewBox="0 0 30 30" id="mastodon">
    <!--<path d="M23.95 12c0-3.9-2.59-5.05-2.59-5.05-1.3-.6-3.53-.84-5.85-.86h-.06c-2.32.02-4.56.26-5.86.86C9.59 6.95 7 8.09 7 12c0 .9-.01 1.96.02 3.1.1 3.81.7 7.57 4.27 8.51 1.64.43 3.05.52 4.19.46a8.38 8.38 0 0 0 3.21-.73l-.06-1.48s-1.48.46-3.13.4c-1.64-.05-3.37-.17-3.63-2.16a4.32 4.32 0 0 1-.04-.56s1.6.39 3.65.48c1.24.06 2.41-.07 3.6-.21 2.27-.27 4.26-1.66 4.5-2.93.4-2 .37-4.88.37-4.88Zm-4.94.44c0-.97-.41-1.46-1.23-1.46-.91 0-1.36.58-1.36 1.74v2.5h-1.88v-2.5c0-1.16-.46-1.74-1.37-1.74-.82 0-1.23.5-1.23 1.46v4.59h-1.9V12.3c0-.97.26-1.73.76-2.3a2.6 2.6 0 0 1 2.02-.86c.97 0 1.7.37 2.18 1.1l.48.79.47-.79a2.45 2.45 0 0 1 2.18-1.1c.84 0 1.51.3 2.03.86.5.57.74 1.33.74 2.3v4.73h-1.89v-4.6Z"/><path d="M29 15.09a14 14 0 1 0-28 0 14 14 0 0 0 28 0Zm1 0a15 15 0 1 1-30 0 15 15 0 0 1 30 0Z"/>-->
    <path d="M29 15a14 14 0 1 0-28 0 14 14 0 0 0 28 0Zm1 0a15 15 0 1 1-30 0 15 15 0 0 1 30 0Z"/><path d="m16.45 5-.39 3.62 3.71-1.02.27 1.74-3.55.28 2.3 2.98-1.67.9-1.64-3.31-1.49 3.3-1.72-.89 2.26-2.98-3.52-.28.27-1.74 3.68 1.02-.4-3.62h1.89Zm-6.02 8.5-.38 3.63 3.71-1.02.27 1.74-3.56.28 2.3 2.98-1.66.89-1.64-3.3-1.5 3.3-1.71-.89 2.26-2.98L5 17.85l.27-1.74 3.67 1.02-.4-3.62h1.9Zm11.97 0-.38 3.63 3.7-1.02.28 1.74-3.56.28 2.3 2.98-1.66.89-1.64-3.3-1.5 3.3-1.71-.89 2.26-2.98-3.52-.28.27-1.74 3.67 1.02-.4-3.62h1.9Z"/>
  </symbol>
  <symbol viewBox="0 0 30 30" id="fediverse">
    <path d="M29 15a14 14 0 1 0-28 0 14 14 0 0 0 28 0Zm1 0a15 15 0 1 1-30 0 15 15 0 0 1 30 0Z"/><path d="m16.45 5-.39 3.62 3.71-1.02.27 1.74-3.55.28 2.3 2.98-1.67.9-1.64-3.31-1.49 3.3-1.72-.89 2.26-2.98-3.52-.28.27-1.74 3.68 1.02-.4-3.62h1.89Zm-6.02 8.5-.38 3.63 3.71-1.02.27 1.74-3.56.28 2.3 2.98-1.66.89-1.64-3.3-1.5 3.3-1.71-.89 2.26-2.98L5 17.85l.27-1.74 3.67 1.02-.4-3.62h1.9Zm11.97 0-.38 3.63 3.7-1.02.28 1.74-3.56.28 2.3 2.98-1.66.89-1.64-3.3-1.5 3.3-1.71-.89 2.26-2.98-3.52-.28.27-1.74 3.67 1.02-.4-3.62h1.9Z"/>
  </symbol>
  <symbol viewBox="0 0 30 30" id="github">
    <path d="M29 15a14 14 0 1 0-28 0 14 14 0 0 0 28 0Zm1 0a15 15 0 1 1-30 0 15 15 0 0 1 30 0Z"/><path d="M14.97 5C9.46 5 5 9.58 5 15.25c0 4.54 2.86 8.37 6.82 9.73.5.1.67-.22.67-.5l-.01-1.9c-2.78.62-3.35-1.22-3.35-1.22-.45-1.18-1.1-1.49-1.1-1.49-.92-.63.06-.63.06-.63 1 .07 1.53 1.06 1.53 1.06.9 1.56 2.33 1.12 2.9.84a2.2 2.2 0 0 1 .63-1.37c-2.2-.24-4.53-1.12-4.53-5.06 0-1.12.4-2.04 1.02-2.75a3.8 3.8 0 0 1 .1-2.72s.84-.27 2.74 1.06a9.4 9.4 0 0 1 4.98 0c1.9-1.33 2.74-1.06 2.74-1.06.55 1.41.2 2.47.1 2.72a3.98 3.98 0 0 1 1.03 2.75c0 3.94-2.33 4.8-4.56 5.06.36.32.68.93.68 1.9l-.02 2.82c0 .27.18.6.68.5a10.23 10.23 0 0 0 6.81-9.74A10.1 10.1 0 0 0 14.97 5Z" />
  </symbol>
  <symbol viewBox="0 0 30 30" id="linkedin">
    <path d="M11.18 21.09v-9.45h-3v9.45h3Zm-1.5-10.74c1.04 0 1.7-.72 1.7-1.63A1.6 1.6 0 0 0 9.7 7.09c-1.03 0-1.7.7-1.7 1.63 0 .9.65 1.63 1.66 1.63h.02Zm3.16 10.74h3V15.8c0-.28.02-.56.1-.76.22-.57.71-1.15 1.54-1.15 1.08 0 1.52.86 1.52 2.13v5.06h3v-5.42c0-2.9-1.48-4.25-3.46-4.25-1.61 0-2.32.95-2.72 1.6h.02v-1.38h-3c.04.89 0 9.45 0 9.45Z" /><path d="M29 15.09a14 14 0 1 0-28 0 14 14 0 0 0 28 0Zm1 0a15 15 0 1 1-30 0 15 15 0 0 1 30 0Z"/>
  </symbol>
  <symbol viewBox="0 0 30 30" id="bsky">
    <path d="M9.94 8.16c2.09 1.57 4.33 4.74 5.16 6.44.82-1.7 3.06-4.87 5.15-6.44 1.5-1.12 3.94-2 3.94.78 0 .56-.32 4.66-.5 5.33-.65 2.32-3.02 2.9-5.12 2.55 3.68.63 4.61 2.7 2.59 4.77-3.84 3.94-5.52-.99-5.95-2.25-.08-.23-.11-.34-.11-.25 0-.09-.04.02-.12.25-.43 1.26-2.1 6.19-5.95 2.25-2.02-2.07-1.08-4.14 2.6-4.77-2.1.36-4.48-.23-5.12-2.55C6.3 13.6 6 9.5 6 8.94c0-2.78 2.44-1.9 3.94-.78Z"/><path d="M29 15.09a14 14 0 1 0-28 0 14 14 0 0 0 28 0Zm1 0a15 15 0 1 1-30 0 15 15 0 0 1 30 0Z"/>
  </symbol>
  <symbol viewBox="0 0 30 30" id="share">
    <path d="M15 6.75a2.25 2.25 0 1 1 4.5 0 2.25 2.25 0 0 1-4.5 0ZM17.25 3a3.75 3.75 0 0 0-3.68 4.49l-3.8 2.3a3.74 3.74 0 1 0 .17 4.18l3.65 2.48A3.76 3.76 0 0 0 17.25 21a3.75 3.75 0 1 0-3.04-5.95l-3.74-2.54a3.8 3.8 0 0 0-.07-1.35l3.76-2.28A3.75 3.75 0 1 0 17.25 3ZM15 17.25a2.25 2.25 0 1 1 4.5 0 2.25 2.25 0 0 1-4.5 0ZM4.5 12A2.25 2.25 0 1 1 9 12a2.25 2.25 0 0 1-4.5 0Z"/>
    <path d="M29 15.09a14 14 0 1 0-28 0 14 14 0 0 0 28 0Zm1 0a15 15 0 1 1-30 0 15 15 0 0 1 30 0Z"/>
  </symbol>
  <symbol viewBox="0 0 30 30" id="email">
    <path d="m23.32 13.03.18.15V23.5h-17V13.18l.18-.15 2.91-2.41.32.38.32.38-2.73 2.27v8.85h15v-8.85l-2.73-2.27.32-.38.32-.38 2.9 2.4Z"/><path d="M23.3 14.4 15 20.62 6.7 14.4l.6-.8 7.7 5.77 7.7-5.77.6.8Z"/><path d="M20.5 6.5V16h-1V7.5h-9V16h-1V6.5h11Z"/><path d="M18 9.5v1h-6v-1h6Zm0 3v1h-6v-1h6Zm0 3v1h-6v-1h6Z"/><path d="M29 15.09a14 14 0 1 0-28 0 14 14 0 0 0 28 0Zm1 0a15 15 0 1 1-30 0 15 15 0 0 1 30 0Z"/>
  </symbol>
  <symbol viewBox="0 0 30 30" id="feed">
    <path d="M9 19.21c0 1.03.84 1.86 1.86 1.86a1.86 1.86 0 1 0 0-3.71c-1.02 0-1.86.83-1.86 1.85Zm4.63-2.76a6.52 6.52 0 0 1 1.92 4.64h2.7c0-5.1-4.15-9.25-9.25-9.25v2.69c1.75 0 3.4.68 4.63 1.92ZM9.01 9.77c6.23 0 11.3 5.08 11.3 11.32H23c0-7.72-6.29-14-14-14v2.68Z" /><path d="M29 15.09a14 14 0 1 0-28 0 14 14 0 0 0 28 0Zm1 0a15 15 0 1 1-30 0 15 15 0 0 1 30 0Z"/>
  </symbol>
  <symbol viewBox="0 0 30 30" id="site-web">
    <path d="M29 15a14 14 0 1 0-28 0 14 14 0 0 0 28 0Zm1 0a15 15 0 1 1-30 0 15 15 0 0 1 30 0Z"/><path d="M24 15a9 9 0 1 0-9 9v1a10 10 0 1 1 0-20 10 10 0 0 1 0 20v-1a9 9 0 0 0 9-9Z"/><path d="M19.45 15c0-2.63-.58-4.96-1.47-6.6C17.07 6.74 15.97 6 15 6c-.97 0-2.07.73-2.98 2.4a14.1 14.1 0 0 0-1.47 6.6c0 2.63.58 4.96 1.47 6.6.91 1.67 2.01 2.4 2.98 2.4v1l-.28-.01c-2.88-.27-5.17-4.64-5.17-9.99 0-5.52 2.44-10 5.45-10l.28.01c2.88.27 5.17 4.64 5.17 9.99v.51C20.3 20.8 17.92 25 15 25v-1c.97 0 2.07-.73 2.98-2.4a14.1 14.1 0 0 0 1.47-6.6Z"/><path d="M15.5 5.45V11a40.6 40.6 0 0 0 7.14-.82l.56-.12.14-.03h.05l.11.48.1.49-.05.01-.15.03a41.71 41.71 0 0 1-2.57.46 39 39 0 0 1-5.33.5v2.51h9.05v1H15.5V18a41.5 41.5 0 0 1 7.33.85l.57.12.15.03h.04l.02.01-.11.49-.1.49h-.02l-.04-.01-.14-.03a37.68 37.68 0 0 0-2.53-.46 40.6 40.6 0 0 0-5.17-.48v5.54h-1V19a40.6 40.6 0 0 0-7.14.82l-.56.12-.14.03H6.6l-.11-.48-.1-.49.05-.01.15-.03a41.67 41.67 0 0 1 2.57-.46 41.5 41.5 0 0 1 5.33-.5v-2.5H5.45v-1h9.05V12a41.53 41.53 0 0 1-7.33-.85l-.57-.12-.15-.03H6.4l-.01-.01.1-.49.1-.49h.02l.04.01.14.03a37.9 37.9 0 0 0 2.53.46c1.47.22 3.36.45 5.17.48V5.45h1Z"/>
  </symbol>
</svg>