<svg xmlns="http://www.w3.org/2000/svg" width="160" height="161" fill="none" viewBox="0 0 160 161"><g clip-path="url(#a)"><path fill="#D9D9D9" d="M0 .09h160v160H0z"/><path fill="url(#b)" d="M0 .09h160v160H0z"/><path fill="#fff" d="M41.7 124.57c-.41 0-.66-.2-.75-.6L33.87 81.3c-.13-.59.05-.88.54-.88h7.01c.45 0 .72.2.81.6L44.8 98.7c.27 1.89.47 3.73.6 5.53.19 1.8.32 3.61.41 5.46.1 1.84.16 3.82.2 5.93h.14c.18-1.53.38-3.08.6-4.65.23-1.58.5-3.13.82-4.65l2.96-16.25-1.48-7.68c-.14-.68.04-1.02.54-1.02h6.74c.45 0 .7.23.74.68l3.57 23.93c.23 1.62.43 3.21.61 4.78.22 1.58.4 3.2.54 4.86h.13a205.1 205.1 0 0 1 .54-11.4c.18-1.84.4-3.8.68-5.86l2.5-17.25c.08-.45.33-.68.73-.68h6.95c.49 0 .7.3.6.88l-7.21 42.6c-.09.45-.31.67-.67.67H58.2c-.45 0-.72-.2-.81-.6l-2.1-14.3-.67-4.3-.54-4.32h-.13l-.67 4.31-.68 4.32-2.5 14.29a.63.63 0 0 1-.33.47.72.72 0 0 1-.4.13h-7.69Zm36.08 0c-.45 0-.68-.27-.68-.8V81.22c0-.54.23-.8.68-.8h19.28c.45 0 .67.26.67.8v5.86c0 .54-.22.81-.67.81h-11.6V98.7h10.52c.45 0 .67.27.67.8v5.54c0 .49-.22.74-.67.74H85.46v11.32h11.6c.45 0 .67.27.67.81v5.86c0 .54-.22.81-.67.81H77.78Zm25.48 0c-.54 0-.81-.27-.81-.8V81.22c0-.54.27-.8.8-.8h9.58c4.13 0 7.21.91 9.23 2.75 2.03 1.85 3.04 4.61 3.04 8.3 0 2.33-.43 4.29-1.28 5.86a9.13 9.13 0 0 1-4.12 3.77v.28a8.63 8.63 0 0 1 5.06 3.7c1.12 1.75 1.68 4 1.68 6.74 0 4.32-1.07 7.53-3.23 9.64-2.11 2.07-5.42 3.1-9.9 3.1h-10.05Zm7.55-7h2.5c1.6 0 2.82-.52 3.63-1.56.85-1.08 1.28-2.67 1.28-4.78 0-1.98-.43-3.49-1.28-4.52-.8-1.03-2.02-1.55-3.64-1.55h-2.5v12.4Zm0-18.75h2.02c1.35 0 2.36-.5 3.03-1.48.72-1.03 1.08-2.54 1.08-4.52 0-1.88-.34-3.25-1.01-4.1-.68-.86-1.75-1.29-3.24-1.29h-1.88v11.4Z"/><path fill="#fff" fill-rule="evenodd" d="M125.6 47.19h-5.5c-.36 0-.52-.25-.49-.76a5.87 5.87 0 0 0-.37-3.16c-.36-.87-.98-1.3-1.87-1.3-.75 0-1.34.25-1.76.76-.4.47-.6 1.23-.64 2.28 0 1.05.21 1.94.64 2.67.42.69 1 1.32 1.7 1.9l4.5 3.49c1.2.9 2.17 1.83 2.88 2.77.71.9 1.21 1.94 1.5 3.1.32 1.13.48 2.49.48 4.08-.04 3.01-.8 5.34-2.3 6.97-1.5 1.6-3.87 2.4-7.1 2.4-2.29 0-4.12-.42-5.51-1.26a7.09 7.09 0 0 1-2.89-3.7c-.53-1.63-.7-3.54-.53-5.71.04-.47.21-.71.53-.71h5.45c.32 0 .47.22.43.65a6.8 6.8 0 0 0 .43 3.6c.46.83 1.2 1.25 2.19 1.25.93 0 1.6-.28 2.03-.82.43-.54.64-1.43.64-2.67 0-1.05-.18-1.96-.53-2.72a4.8 4.8 0 0 0-1.66-2.07l-4.54-3.59a13.95 13.95 0 0 1-3.74-4.19 11 11 0 0 1-1.18-5.55c.04-2.83.79-5 2.25-6.53 1.46-1.52 3.63-2.28 6.52-2.28 3.24 0 5.62.9 7.16 2.72 1.53 1.78 2.15 4.32 1.87 7.62-.04.5-.24.76-.6.76Zm-21.11 24.87h-5.56c-.36 0-.53-.22-.53-.66V37.07c0-.44.17-.66.53-.66h5.56c.35 0 .53.22.53.66V71.4c0 .44-.18.66-.53.66Zm-9.28 0h-6.04c-.32 0-.54-.15-.64-.44l-4.6-13.6h-1.81V71.4c0 .44-.18.66-.54.66h-5.56c-.35 0-.53-.22-.53-.66V37.07c0-.44.18-.66.53-.66h7.91c3.6 0 6.22.86 7.86 2.56 1.67 1.67 2.5 4.34 2.5 8 0 2.61-.35 4.72-1.06 6.31a6.48 6.48 0 0 1-3.1 3.38l-.05.1 5.55 14.54c.15.5 0 .76-.42.76ZM86.76 43.6c-.6-.76-1.55-1.14-2.83-1.14h-1.81v9.9h1.87c1.31 0 2.26-.42 2.83-1.25.57-.84.85-2.1.85-3.81 0-1.7-.3-2.94-.9-3.7ZM73 72.06h-6.65l-1.56-7.8 5.4.37-10.12-14.4-3.36 17.42 4.55-2.58 1.4 6.99H51.02c-.35 0-.5-.24-.42-.7l7.2-34.45c.08-.33.28-.5.6-.5h7.16c.35 0 .57.17.64.5l7.16 34.44c.1.47-.02.7-.38.7Zm-31.7-12.3h-1.33V71.4c0 .44-.18.66-.54.66h-5.55c-.36 0-.54-.22-.54-.66V37.07c0-.44.18-.66.54-.66h7.26c3.5 0 6.06.97 7.7 2.89 1.67 1.89 2.5 4.82 2.5 8.81 0 3.78-.85 6.66-2.56 8.66-1.7 2-4.2 2.99-7.48 2.99Zm2.62-15.94c-.57-.91-1.48-1.36-2.72-1.36h-1.23v11.26h1.17c1.25 0 2.16-.45 2.73-1.36.6-.9.9-2.3.9-4.19 0-2.03-.28-3.48-.85-4.35Z" clip-rule="evenodd"/></g><defs><radialGradient id="b" cx="0" cy="0" r="1" gradientTransform="matrix(238 0 0 142 80 151.17)" gradientUnits="userSpaceOnUse"><stop stop-color="#FF3D91"/><stop offset=".16" stop-color="#EF3E90"/><stop offset=".31" stop-color="#C2418C"/><stop offset=".51" stop-color="#7D55A3"/><stop offset=".62" stop-color="#6F7EBD"/><stop offset=".71" stop-color="#6A8EC8"/><stop offset="1" stop-color="#1CC6FF"/></radialGradient><clipPath id="a"><rect width="160" height="160" y=".09" fill="#fff" rx="80"/></clipPath></defs></svg>