<svg xmlns="http://www.w3.org/2000/svg">
	<symbol id="bi-chat" viewBox="0 0 16 16">
		<path d="M2.678 11.894a1 1 0 0 1 .287.801 11 11 0 0 1-.398 2c1.395-.323 2.247-.697 2.634-.893a1 1 0 0 1 .71-.074A8 8 0 0 0 8 14c3.996 0 7-2.807 7-6s-3.004-6-7-6-7 2.808-7 6c0 1.468.617 2.83 1.678 3.894m-.493 3.905a22 22 0 0 1-.713.129c-.2.032-.352-.176-.273-.362a10 10 0 0 0 .244-.637l.003-.01c.248-.72.45-1.548.524-2.319C.743 11.37 0 9.76 0 8c0-3.866 3.582-7 8-7s8 3.134 8 7-3.582 7-8 7a9 9 0 0 1-2.347-.306c-.52.263-1.639.742-3.468 1.105"></path>
	</symbol>
	<symbol id="bi-funnel" viewBox="0 0 16 16">
		<path d="M1.5 1.5A.5.5 0 0 1 2 1h12a.5.5 0 0 1 .5.5v2a.5.5 0 0 1-.128.334L10 8.692V13.5a.5.5 0 0 1-.342.474l-3 1A.5.5 0 0 1 6 14.5V8.692L1.628 3.834A.5.5 0 0 1 1.5 3.5zm1 .5v1.308l4.372 4.858A.5.5 0 0 1 7 8.5v5.306l2-.666V8.5a.5.5 0 0 1 .128-.334L13.5 3.308V2z"></path>
	</symbol>
	<symbol id="bi-exclamation-triangle" viewBox="0 0 16 16">
		<path d="M7.938 2.016A.13.13 0 0 1 8.002 2a.13.13 0 0 1 .063.016.15.15 0 0 1 .054.057l6.857 11.667c.036.06.035.124.002.183a.2.2 0 0 1-.054.06.1.1 0 0 1-.066.017H1.146a.1.1 0 0 1-.066-.017.2.2 0 0 1-.054-.06.18.18 0 0 1 .002-.183L7.884 2.073a.15.15 0 0 1 .054-.057m1.044-.45a1.13 1.13 0 0 0-1.96 0L.165 13.233c-.457.778.091 1.767.98 1.767h13.713c.889 0 1.438-.99.98-1.767z"></path>
  <path d="M7.002 12a1 1 0 1 1 2 0 1 1 0 0 1-2 0M7.1 5.995a.905.905 0 1 1 1.8 0l-.35 3.507a.552.552 0 0 1-1.1 0z"></path>
	</symbol>
</svg>