<svg xmlns="http://www.w3.org/2000/svg" fill="none" viewBox="0 0 170 39"><path fill="#3D9DD9" d="M31.33 9.14C28.15 12.4 2.55 12.5.8 13.64-.58 15 3.88 35.05 5.56 37.88c.6 1 1.18 1.1 2.42.43 1.97-1.23 26-2.62 28.65-2.76.3-.68 1.55 1.33 1.67.53.49-2.08 46-4.49 47.4-4.6 2.23-.16.36-1.19 3.03-.98 5.67.44 17.78-1.77 22.1-1.02 3.47.6 4.2.52 7.4-.48 3.27-1.02 21.07-1.64 23.18-.3.53.34.9.19.86-.27.2-.05 12.46-1.5 12.48-1.79.06-.46.43-.7.8-.42.69.4 14.1 1.14 14.22-.2.37-3.83-2.57-19.76-4.37-23.59-1.9-4.04-10.27 1.28-17.46-.7-38.3 2.9-29.65 2.95-39.72 1.66-.69 1.44-4.02-1.65-5.7.92-.7 1.06-6.23 1.7-7.55.83-1.13-.75-29.31 4.25-32.46 1.89-4.97 2.84-26.25 2.04-31.18 2.11Z" opacity=".3"/></svg>