<svg xmlns="http://www.w3.org/2000/svg" width="160" height="7" fill="none" viewBox="0 0 160 7"><path fill="#FF52AB" d="M42.9 5.22v.53c-.42.24-.7.07-1.01-.1h-2.06l-.66.26-.61-.26-.3.16c-.12.01-.24.05-.36.05h-1.37l-.57-.25-.78.24h-1.13l-.42-.19c-.27-.05-.47.01-.7.12-.12.06-.36.04-.53.09-.23.06-.32.23-.77.2L31 5.83l-.8.23h-1.99l-.39-.2h-2.47l-.38-.2h-1.26l-.4.43-.75-.41H20.4l-.46.2c-.38-.09-.73-.2-1.1-.22-.35-.02-.66-.03-.84-.23l-.47.22H3.94l-.43-.2-.36.18-.5-.2H1.04l-.18-.1.57-.3 1.19-.05c-.46-.21-.95-.2-1.19-.39l-.34.18H.11c-.15-.26-.14-.53-.01-.81.5.13.93.29 1.53.12v-.93l.6-.08.47.22h.81l.44-.2.34.18.66-.22.65.21.4-.18h.8l.43.2c.15-.06.3-.13.51-.24l.87.23h1.5l.48-.2h2.01l.38-.2.43.2.38-.18 1.3.36.39-.16h1.02c.44-.05.55-.32 1.22-.14.36.13-.11.3-.41.46.54.16 1.02.08 1.56.1l.2-.59.38-.06c.45.05.55.3 1.02.39.06-.03.2-.1.36-.16l.38.18 1.54-.44.57.23h4.98l.39-.2h2.89c.17-.1.26-.15.38-.2H41l.44-.22c.4-.07.62.08.84.2l.36-.18h2.97l.52.22.73-.22h6.19l.35.18.43-.2L60 2.42l.43-.21c.45-.09.59.15.82.2h.84l.35-.19h4.15l.42.18.43-.19h9.85l.46-.22.27.15c.13.02.25.06.37.06h1.8l.46-.2.27.14 1.24-.19.53.25h.81l.43-.21h4.94l.38-.2c.78-.05 1.66.01 2.51-.03l.44-.19.35.19.43-.18.44.19h4.1l.42-.2.43.2.31-.17c.38-.04.77-.12 1.11.06.34.18.75.15 1.11.06.41-.09.78-.23 1.25-.37h.75l.39.42h.43l.73-.38c.53-.15.95.04 1.41.12l.3-.16.45.2h3.33l.24-.36c.44-.14.92 0 1.4-.1l.27.41c.45.1.92.05 1.42.04l.28-.4h1.7l.44-.23h4.94l.38-.2.44.2h1.22l.45-.22h1.63l.37-.19.44.18h3.35l.34-.18.45.19h1.63l.43-.2h1.64l.43.2.3-.15c.05-.02.1-.06.16-.06h5.15l.19-.02.33-.17h.9l.35.18.45-.2h1.22l.43.2h1.63l.45-.2h2.04l.35-.2h1.4c.03.1.08.19.14.31l-.79.15-.12.3-.69.13c0 .2.36.25.53.38h.43l.4-.46.74.85 1.14.1c-.32.3-.98-.01-1.24.27.06.03.1.08.15.08h2.1l.38-.41h.64v.32l.6.3.44-.2h1.22l.43.22h3.65c.26.05.33.24.67.21l-.15.2h-5.04l-.36-.19h-2.43l-.46-.21c-.18.25-.43.48-.88.63-.43.08-.56-.16-.87-.21-.6-.16-.94.2-1.5.21a87.3 87.3 0 0 1-.44-.19l-.68.24-1.15-.51-.7.54-.82-.26-.4.18h-6.56l-.45.21-.3-.15c-.43-.11-.9-.05-1.37-.04l-.35.18-.4-.16c-.44-.05-.91-.11-1.28.19h-8.69l-.37.2h-6.16l-.46.21h-3.27l-.45.22h-7.82l-.37.2h-2.06l-.4.2H98.3l-.33-.16-.51.2h-4.08l-.38.2h-5.33l-.46.22h-2.05l-.43-.2-.3.15c-.05.02-.1.05-.16.05H80.6c-.34.29-.81.23-1.28.19L79 4.8l-.44.19h-4.48l-.47.22h-2.04l-.31-.15c-.42-.13-.9-.04-1.36-.06l-.37.2-1.29.03-.52.24-.73-.21-.39.16h-2.04l-.42-.2-.43.21h-2.88l-.3.16c-.44.11-.9.04-1.35.04l-.43-.2c-.47-.08-.58.18-1.02.23l-.83-.26-.62.22-.4-.19h-.61c.03-.21-.25-.21-.68-.22l-.6.43h-1.37l-.45.22h-2.04l-.44-.21h-.8l-.44-.22c-.6-.04-.78.25-1.2.4h-2.51l-.6-.28V5.3l.82-.2c-.3-.18-.66-.07-1.02-.11l-.39.42-.65-.2-.14-.19c-.5-.02-1-.08-1.64.09.66.16 1.24.07 1.78.1ZM147.2.6c-.3-.21-.74-.13-1.07-.07-.4.08-.75.25-1.14.36-.1.03-.26.02-.42.03-.24-.08-.41-.27-.88-.2l-.3.3c.27.1.56.18.85.27l.33-.16h2.45c.04 0 .1-.05.17-.09l-.36-.22.37-.22Zm-2.04 1.8c0-.25 0-.48-.02-.72 0-.03-.16-.06-.24-.1-.17.15-.57.2-.57.4.07.21.33.33.82.43ZM141.65.93c-.35.2-.33.42-.06.6l.73-.25-.67-.35ZM36.39 5.09c-1.64-.1-1.64-.1-1.68.09.18.01.37.04.55.03.32-.01.67.07 1.13-.12Zm9.34.51-.01-.13-.55-.03c-.05 0-.14.05-.14.06.03.05.1.14.15.14.18 0 .37-.02.55-.04ZM140.47.95l-.26.08c.04.02.1.07.13.06.1 0 .19-.04.28-.06l-.15-.08Zm-29.13.5c-.04-.02-.1-.06-.13-.06-.1.01-.19.04-.28.07.05.02.1.07.14.07l.27-.07Zm34.9.3.15-.08c-.09-.03-.18-.06-.27-.07-.04 0-.1.04-.14.07l.27.08Zm-5.68.16-.15-.13c-.04.02-.13.05-.13.07.03.05.09.1.13.14l.15-.08Zm1.65 0-.15-.13c-.04.02-.13.05-.13.07.03.05.09.1.13.14l.15-.08Zm1.24 0-.15-.13c-.05.02-.14.05-.13.07.02.05.08.1.13.14l.15-.08Zm4.24 0 .15.08.13-.14c0-.02-.09-.05-.13-.07l-.15.13ZM53.97 2.94l-.15-.08c-.04.05-.1.1-.12.14-.01.02.08.05.12.07l.15-.13ZM8 4.33l.26-.08c-.04-.03-.1-.07-.13-.07-.1.01-.19.04-.28.07l.15.07Zm45.97.3-.14-.07c-.05.05-.11.1-.13.15-.01.02.08.04.13.07l.14-.14Zm1.24.22-.15-.07-.13.14c0 .02.09.05.13.07l.15-.14Zm-31.75.44-.15-.08-.13.14c0 .02.09.05.13.07l.15-.13Zm1.44-.05-.14.08.27.06c.04 0 .1-.04.14-.06a230 230 0 0 0-.27-.08Z"/></svg>